<svg width="41" height="41" viewBox="0 0 41 41" fill="none" xmlns="http://www.w3.org/2000/svg">
<path d="M39.1109 39.9788L36.0473 11.4371C35.9963 10.9776 35.5878 10.6202 35.1283 10.6202H29.4608V8.88418C29.4608 3.98256 25.4782 0 20.5766 0C15.675 0 11.6924 3.98256 11.6924 8.88418V10.6202H5.87176C5.41224 10.6202 5.00377 10.9776 4.95271 11.4371L1.8892 39.9788C1.83814 40.2341 1.94026 40.4894 2.09343 40.6936C2.24661 40.8979 2.5019 41 2.75719 41H38.2429C38.4982 41 38.7534 40.8979 38.9066 40.6936C39.0598 40.4894 39.1619 40.2341 39.1109 39.9788ZM28.5417 15.7771C29.0013 15.7771 29.3587 16.1345 29.3587 16.594C29.3587 17.0535 29.0013 17.411 28.5417 17.411C28.0822 17.411 27.7248 17.0535 27.7248 16.594C27.7248 16.1345 28.0822 15.7771 28.5417 15.7771ZM13.5305 8.88418C13.5305 5.00374 16.6962 1.83811 20.5766 1.83811C24.4571 1.83811 27.6227 5.00374 27.6227 8.88418V10.6202H13.5305V8.88418ZM12.6115 15.7771C13.071 15.7771 13.4284 16.1345 13.4284 16.594C13.4284 17.0535 13.071 17.411 12.6115 17.411C12.152 17.411 11.7946 17.0535 11.7946 16.594C11.7946 16.1345 12.152 15.7771 12.6115 15.7771ZM3.82942 39.1108L6.6887 12.4072H11.6924V14.0922C10.6713 14.4496 9.95644 15.4197 9.95644 16.543C9.95644 17.9726 11.1308 19.1469 12.5604 19.1469C13.9901 19.1469 15.1644 17.9726 15.1644 16.543C15.1644 15.4197 14.4496 14.4496 13.4284 14.0922V12.4072H27.5206V14.0922C26.4994 14.4496 25.7846 15.4197 25.7846 16.543C25.7846 17.9726 26.9589 19.1469 28.3886 19.1469C29.8182 19.1469 30.9926 17.9726 30.9926 16.543C30.9926 15.4197 30.2777 14.4496 29.2566 14.0922V12.4072H34.4645L37.3238 39.1108H3.82942Z" fill="#3AAFA9"/>
</svg>
